<?xml version="1.0" standalone="no"?>
<!DOCTYPE svg PUBLIC "-//W3C//DTD SVG 20010904//EN"
 "http://www.w3.org/TR/2001/REC-SVG-20010904/DTD/svg10.dtd">
<svg version="1.0" xmlns="http://www.w3.org/2000/svg"
 width="250.000000pt" height="303.000000pt" viewBox="0 0 250.000000 303.000000"
 preserveAspectRatio="xMidYMid meet">

<g transform="translate(0.000000,303.000000) scale(0.100000,-0.100000)"
fill="currentColor" stroke="none">
<path d="M1268 3025 c-5 -5 -200 -27 -227 -26 -26 1 -140 -27 -156 -39 -5 -4
-25 -11 -42 -15 -18 -3 -33 -10 -33 -14 0 -5 -15 -11 -33 -14 -29 -4 -66 -21
-201 -89 -21 -11 -41 -28 -43 -39 -3 -10 -9 -16 -15 -13 -11 7 -63 -32 -111
-83 -88 -95 -107 -119 -107 -136 0 -9 -12 -27 -26 -40 -61 -53 -157 -294 -173
-438 -9 -79 -6 -216 5 -248 3 -8 7 -40 10 -70 12 -125 82 -340 140 -427 27
-41 34 -60 30 -81 -4 -17 0 -40 9 -57 8 -15 15 -33 15 -38 0 -9 39 -66 71
-103 53 -61 115 -125 120 -125 5 0 68 -56 140 -125 9 -8 18 -15 22 -15 9 0 72
-44 92 -63 66 -67 140 -107 205 -113 14 -1 45 -5 70 -8 159 -21 246 -21 310 2
8 3 20 6 25 7 338 78 393 98 531 189 106 71 170 123 205 168 19 23 55 65 82
93 26 27 50 61 53 75 4 14 22 52 40 85 76 139 113 280 116 440 2 110 -6 272
-17 350 -4 28 -8 61 -9 75 -6 68 -36 190 -46 190 -5 0 -6 8 -3 19 6 25 -34
123 -82 196 -22 33 -39 63 -40 67 0 12 -28 50 -62 84 -17 18 -34 42 -38 54 -3
11 -10 20 -15 20 -5 0 -32 23 -61 50 -31 30 -61 50 -75 50 -14 0 -25 8 -29 20
-4 13 -18 23 -36 27 -16 3 -29 9 -29 14 0 4 -10 11 -22 15 -13 4 -34 15 -48
26 -15 10 -37 20 -51 22 -13 1 -33 6 -44 10 -84 32 -124 45 -150 46 -30 1 -42
2 -105 13 -45 8 -158 16 -162 12z m-105 -402 c8 -10 19 -31 22 -46 11 -41 37
-30 53 21 17 52 48 60 38 10 -18 -89 -3 -99 54 -37 22 24 42 40 45 37 8 -8
-19 -60 -39 -77 -9 -8 -16 -17 -16 -22 0 -16 23 -10 47 13 17 16 23 18 23 7 0
-29 -26 -51 -61 -53 -38 -2 -46 -19 -11 -24 30 -4 23 -24 -12 -37 -23 -8 -30
-5 -57 24 -34 37 -50 35 -29 -5 12 -22 12 -27 0 -34 -25 -16 -39 -4 -55 44 -5
19 -7 18 -31 -7 -27 -29 -74 -37 -74 -12 0 8 11 22 25 31 32 21 32 34 1 34
-27 0 -56 24 -56 46 0 18 19 18 26 0 8 -20 63 -41 75 -29 7 7 0 12 -20 16 -18
4 -32 14 -36 27 -10 31 2 37 25 12 19 -21 40 -29 40 -17 0 4 -7 20 -16 36 -12
24 -13 34 -3 45 15 18 23 18 42 -3z m260 -218 c51 -35 82 -88 112 -191 31
-105 32 -184 5 -299 -25 -106 -46 -148 -102 -202 -72 -70 -168 -96 -257 -69
-66 19 -86 31 -138 79 -81 75 -108 158 -100 310 6 121 26 187 86 279 38 58 47
67 79 71 20 2 45 0 55 -5 31 -16 144 2 180 27 18 13 34 24 37 24 3 1 22 -10
43 -24z m-53 -810 c0 -28 -48 -71 -89 -80 -37 -8 -77 10 -104 47 -34 45 -21
53 92 54 99 2 101 1 101 -21z m1 -102 c5 -132 -4 -211 -27 -263 -41 -89 -94
-148 -94 -104 0 9 -13 29 -30 44 l-30 28 21 47 c29 66 36 150 15 199 -9 21
-16 40 -16 42 0 2 19 4 43 4 23 1 53 7 67 15 37 21 50 18 51 -12z m-1051 -283
c0 -5 -4 -10 -10 -10 -5 0 -10 5 -10 10 0 6 5 10 10 10 6 0 10 -4 10 -10z
m890 -60 c36 -36 21 -100 -22 -100 -19 0 -58 54 -58 81 0 40 48 51 80 19z"/>
<path d="M1164 1126 c-7 -18 23 -59 36 -51 11 7 1 42 -16 56 -11 9 -15 8 -20
-5z"/>
<path d="M2314 366 c-63 -28 -83 -99 -43 -150 11 -15 48 -45 81 -67 50 -35 59
-45 56 -67 -6 -55 -99 -52 -128 4 -8 13 -20 24 -28 24 -20 0 -8 -71 15 -87 21
-16 99 -17 144 -2 57 20 80 47 76 92 -5 45 -34 79 -104 117 -79 43 -83 110 -8
110 26 0 39 -7 58 -31 14 -18 29 -29 34 -26 16 10 2 67 -20 82 -26 19 -92 19
-133 1z"/>
<path d="M17 364 c-4 -4 5 -17 18 -30 24 -22 25 -28 25 -149 0 -124 0 -126
-25 -137 -14 -6 -25 -17 -25 -25 0 -10 21 -13 85 -13 84 0 104 9 65 30 -17 9
-20 21 -20 76 l0 65 73 -3 72 -3 3 -62 c3 -54 0 -63 -18 -73 -40 -21 -20 -30
69 -30 95 0 119 10 74 32 l-28 13 -3 133 -3 132 26 12 c46 21 22 33 -65 32
-82 0 -116 -14 -71 -29 17 -5 21 -15 21 -50 0 -74 1 -73 -142 -65 -5 0 -8 25
-8 56 0 48 3 57 20 61 12 3 19 11 17 17 -4 12 -148 21 -160 10z"/>
<path d="M560 360 c-66 -4 -72 -6 -53 -18 12 -6 45 -47 72 -89 47 -70 51 -82
51 -135 0 -53 -2 -60 -25 -70 -43 -19 -23 -33 51 -34 80 0 104 4 104 17 0 5
-11 14 -25 19 -22 8 -25 15 -25 62 0 48 6 62 55 135 30 45 63 84 75 88 11 3
20 13 20 21 0 12 -12 14 -60 11 -62 -3 -84 -12 -56 -23 9 -3 16 -13 16 -22 0
-15 -51 -102 -60 -102 -3 0 -20 23 -39 51 -30 46 -32 53 -17 61 19 11 21 24 4
29 -7 2 -47 2 -88 -1z"/>
<path d="M938 363 c-23 -6 -23 -11 5 -37 21 -20 22 -26 17 -146 -5 -125 -5
-125 -33 -138 -15 -7 -25 -17 -22 -22 5 -8 174 -5 183 4 3 3 -6 14 -19 25 -22
18 -24 28 -27 121 -5 128 2 170 28 170 33 0 60 -39 60 -86 0 -36 -5 -46 -32
-68 -36 -28 -33 -39 12 -39 42 0 82 32 99 80 13 37 13 43 -5 74 -30 51 -74 69
-169 68 -44 -1 -88 -3 -97 -6z"/>
<path d="M1275 361 c-3 -6 5 -16 19 -22 39 -18 48 -55 43 -170 -3 -84 -7 -104
-22 -116 -11 -7 -23 -13 -28 -13 -5 0 -7 -6 -5 -12 5 -13 124 -21 142 -10 5 3
-3 15 -19 28 -26 21 -28 27 -32 113 -2 50 0 91 5 91 4 0 50 -48 102 -106 118
-132 132 -145 145 -141 6 2 12 65 16 158 4 85 7 157 8 162 0 4 13 12 28 18 43
16 14 27 -59 21 -73 -5 -83 -12 -43 -30 24 -11 25 -16 25 -97 0 -47 -4 -85 -9
-85 -8 0 -111 108 -178 187 -21 24 -126 43 -138 24z"/>
<path d="M1865 352 c-52 -25 -70 -46 -91 -111 -16 -50 -16 -56 -1 -105 30 -95
138 -153 235 -127 146 40 192 239 76 328 -49 37 -157 44 -219 15z m124 -21
c37 -19 58 -55 76 -132 9 -38 -12 -107 -41 -136 -21 -21 -32 -25 -66 -20 -22
3 -49 14 -60 24 -67 59 -64 221 5 263 39 24 39 24 86 1z"/>
</g>
</svg>
