<?xml version="1.0" standalone="no"?>
<!DOCTYPE svg PUBLIC "-//W3C//DTD SVG 20010904//EN"
 "http://www.w3.org/TR/2001/REC-SVG-20010904/DTD/svg10.dtd">
<svg version="1.0" xmlns="http://www.w3.org/2000/svg"
 width="248.000000pt" height="300.000000pt" viewBox="0 0 248.000000 300.000000"
 preserveAspectRatio="xMidYMid meet">
<metadata>
Created by potrace 1.10, written by Peter Selinger 2001-2011
</metadata>
<g transform="translate(0.000000,300.000000) scale(0.100000,-0.100000)"
fill="currentColor" stroke="none">
<path d="M1219 2986 c-6 -6 -134 -18 -184 -17 -34 1 -228 -58 -233 -71 -2 -4
-13 -8 -24 -8 -25 0 -178 -70 -178 -82 0 -4 -8 -8 -17 -8 -26 -1 -69 -35 -54
-44 6 -4 11 -14 11 -23 0 -14 -2 -14 -19 1 -22 20 -17 24 -106 -60 -30 -27
-55 -58 -55 -68 0 -9 -4 -15 -9 -12 -14 9 -50 -38 -60 -79 -5 -22 -9 -34 -10
-27 -1 18 -33 -14 -53 -53 -47 -91 -66 -136 -83 -190 -10 -33 -22 -69 -26 -80
-23 -53 -32 -301 -13 -354 3 -8 7 -40 10 -70 6 -66 58 -254 90 -329 13 -29 37
-73 53 -98 23 -33 29 -51 25 -73 -8 -37 34 -127 85 -182 20 -22 44 -51 54 -64
10 -14 24 -25 31 -25 8 0 16 -9 19 -21 3 -11 15 -23 26 -26 12 -3 21 -12 21
-19 0 -8 4 -14 8 -14 5 0 25 -16 45 -35 20 -19 43 -35 53 -35 10 0 14 -5 11
-14 -4 -10 2 -18 16 -22 26 -8 68 -38 116 -82 54 -50 120 -86 162 -88 20 -1
42 -4 47 -8 6 -3 23 -6 39 -6 15 0 52 -3 81 -8 44 -7 52 -6 52 7 1 14 2 14 10
-1 8 -12 21 -16 49 -13 75 7 131 17 131 24 0 4 10 7 23 6 12 -1 38 4 57 11 19
7 46 16 60 18 137 26 260 62 292 86 15 11 31 20 35 20 4 0 37 21 73 46 36 25
81 55 100 68 19 13 53 43 75 68 22 25 67 75 100 112 34 38 64 83 71 105 6 22
21 53 33 69 28 40 68 147 92 244 31 129 29 470 -3 505 -23 25 -23 40 -2 22 15
-12 16 -10 9 21 -4 19 -14 46 -23 60 -15 24 -15 24 3 10 17 -14 18 -13 11 15
-9 36 -25 57 -37 49 -5 -3 -9 0 -9 6 0 7 7 10 15 6 11 -4 15 2 15 24 0 16 -5
32 -11 35 -6 4 -8 13 -5 21 3 8 -1 17 -9 20 -8 4 -12 10 -9 15 11 18 -26 115
-71 187 -25 41 -45 77 -45 81 0 14 -42 56 -52 53 -5 -1 -7 2 -3 7 3 6 -4 15
-15 21 -11 6 -22 21 -26 35 -3 13 -30 43 -60 66 -29 24 -56 49 -58 56 -3 7
-19 13 -36 13 -23 0 -30 4 -30 19 0 13 -9 21 -29 26 -16 3 -35 13 -42 21 -6 8
-18 14 -27 14 -9 0 -26 9 -38 21 -12 11 -36 21 -53 21 -17 1 -31 4 -31 7 0 8
-117 45 -150 48 -14 1 -43 4 -65 8 -58 10 -239 18 -246 11z m201 -46 c19 -5
60 -11 90 -15 61 -8 193 -51 255 -83 22 -12 52 -26 68 -31 15 -6 27 -14 27
-19 0 -5 21 -21 48 -35 81 -44 220 -199 223 -248 0 -10 2 -11 6 -1 2 6 9 12
15 12 6 0 8 -7 4 -15 -7 -20 3 -45 19 -45 16 0 47 -35 38 -43 -11 -12 -23 -8
-23 8 0 8 -5 15 -11 15 -11 0 -8 -6 29 -60 19 -26 23 -29 19 -12 -3 12 -1 22
4 22 5 0 9 -12 9 -27 0 -16 4 -44 9 -63 5 -19 12 -48 15 -63 4 -15 11 -25 16
-22 5 3 12 0 16 -6 3 -6 1 -15 -6 -19 -13 -8 -5 -90 8 -90 4 0 7 -15 8 -32 1
-101 16 -277 25 -311 18 -69 -4 -255 -47 -383 -60 -179 -176 -351 -288 -429
-67 -46 -126 -103 -126 -121 0 -14 -2 -14 -16 -3 -14 11 -18 11 -28 -2 -6 -8
-30 -20 -54 -27 -23 -7 -40 -17 -37 -22 9 -15 -74 -52 -101 -46 -12 3 -25 2
-28 -3 -3 -5 -22 -12 -41 -15 -19 -4 -35 -11 -35 -16 0 -5 -13 -7 -29 -4 -25
5 -95 -9 -161 -34 -32 -11 -48 -14 -126 -19 -44 -3 -121 0 -170 7 -49 6 -98
13 -109 14 -40 5 -95 39 -158 97 -35 32 -67 56 -70 53 -3 -4 -17 6 -30 20 -13
14 -29 26 -36 26 -6 0 -11 7 -11 15 0 8 -6 15 -12 15 -15 0 -118 96 -118 109
0 5 -9 7 -20 4 -11 -3 -20 0 -20 6 0 6 6 11 12 11 7 0 -1 10 -17 22 -62 45
-95 93 -105 153 -5 32 -18 76 -30 99 -11 23 -20 48 -20 55 0 8 -6 11 -15 7 -8
-3 -15 0 -15 7 0 7 -14 46 -30 87 -27 65 -37 96 -55 174 -2 10 -10 34 -16 53
-6 19 -9 48 -5 64 4 21 1 31 -12 38 -13 8 -14 12 -5 22 7 7 9 18 4 28 -14 25
-18 139 -10 227 12 117 101 366 140 390 6 3 30 36 53 73 24 36 50 72 59 79 9
8 13 21 10 30 -3 12 -2 13 4 5 6 -9 16 -2 36 22 15 19 47 45 70 56 23 12 48
30 54 39 13 19 191 110 214 110 8 0 25 6 39 13 53 28 142 50 149 38 4 -6 15
-9 25 -5 11 4 14 9 7 13 -6 4 31 13 82 20 50 6 110 16 132 20 43 9 147 4 205
-9z"/>
<path d="M1052 2587 c-64 -65 -78 -101 -48 -126 28 -23 12 -99 -37 -185 -57
-97 -72 -160 -72 -296 0 -139 20 -205 83 -272 26 -28 66 -64 90 -80 23 -16 42
-35 42 -42 0 -7 10 -33 23 -57 13 -24 31 -72 42 -107 28 -94 12 -152 -75 -269
-17 -24 -18 -33 -10 -65 12 -42 61 -88 93 -88 37 0 141 109 179 187 32 67 33
71 32 193 -1 69 -2 134 -3 145 -4 57 12 94 60 139 64 60 95 125 121 249 25
122 21 196 -17 314 -27 86 -80 167 -126 191 -23 12 -25 19 -26 88 -1 90 -19
119 -67 110 -22 -5 -32 -1 -43 14 -17 24 -50 26 -75 3 -18 -16 -21 -16 -47 0
-16 9 -35 17 -43 17 -7 0 -42 -28 -76 -63z m218 7 c0 -14 -5 -34 -11 -45 -6
-12 -8 -27 -5 -35 8 -22 41 -1 72 46 15 22 30 37 35 34 18 -10 8 -39 -23 -71
-22 -22 -29 -36 -22 -43 7 -7 18 -2 34 15 26 28 40 32 40 12 0 -25 -46 -59
-76 -55 -15 2 -29 -2 -31 -9 -3 -8 5 -13 21 -13 29 0 36 -24 10 -34 -31 -12
-51 -6 -77 24 -27 30 -47 39 -47 21 0 -5 7 -16 15 -25 28 -27 12 -53 -25 -41
-12 4 -20 15 -20 29 0 36 -11 37 -41 5 -19 -20 -36 -29 -50 -27 -36 5 -33 26
8 50 l38 23 -31 3 c-39 4 -77 41 -64 62 7 12 13 9 34 -13 24 -26 76 -38 76
-17 0 6 -11 10 -24 10 -30 0 -61 39 -45 55 7 7 16 2 31 -17 11 -16 26 -28 34
-28 19 0 18 7 -6 37 -25 32 -25 49 -1 62 22 12 40 -5 56 -53 14 -44 38 -39 50
9 6 22 14 46 18 53 12 18 27 5 27 -24z m128 -202 c61 -37 99 -98 131 -213 25
-90 27 -169 5 -264 -26 -114 -43 -152 -94 -208 -63 -69 -133 -94 -236 -83 -78
8 -92 14 -162 73 -87 74 -118 165 -110 319 6 103 29 176 83 266 35 58 43 65
82 74 35 8 46 8 55 -4 8 -9 23 -12 42 -8 105 18 130 25 149 45 26 25 20 25 55
3z m-43 -793 c23 -36 -50 -99 -115 -99 -37 0 -90 47 -90 80 0 19 4 20 63 15
34 -3 76 -2 92 4 40 13 43 13 50 0z m6 -116 c5 -115 -4 -211 -25 -258 -29 -63
-74 -135 -85 -135 -5 0 -11 14 -15 30 -3 19 -16 37 -34 47 l-28 16 24 48 c13
26 26 74 29 108 5 49 2 66 -16 96 -27 46 -27 59 -2 45 29 -15 62 -12 101 9 46
26 50 26 51 -6z m-167 -339 c41 -41 43 -84 5 -105 -16 -8 -25 -5 -49 20 -31
31 -39 68 -18 89 17 17 44 15 62 -4z"/>
<path d="M1155 1117 c-8 -19 21 -60 36 -51 14 8 11 20 -10 45 -18 22 -20 22
-26 6z"/>
<path d="M2305 364 c-48 -16 -74 -49 -75 -91 0 -39 33 -79 105 -126 73 -47 73
-107 1 -107 -35 1 -53 13 -80 54 -23 37 -41 21 -32 -28 8 -43 29 -56 89 -56
54 0 105 16 134 43 19 17 22 27 17 61 -7 46 -33 75 -107 118 -30 17 -49 36
-53 53 -17 68 91 76 117 9 5 -14 15 -24 22 -21 15 5 11 68 -6 83 -19 18 -90
23 -132 8z"/>
<path d="M14 358 c-4 -6 -2 -14 4 -16 37 -12 42 -32 42 -158 0 -123 0 -125
-25 -136 -14 -6 -25 -17 -25 -24 0 -9 23 -12 85 -12 89 1 115 11 71 28 -24 9
-26 14 -26 75 l0 65 75 0 76 0 -2 -66 c-2 -59 -4 -66 -26 -75 -45 -17 -12 -29
77 -29 83 0 125 13 83 26 -48 15 -48 15 -48 150 l0 129 28 13 c53 25 29 47
-37 32 -31 -7 -54 -7 -72 0 -15 6 -35 8 -43 5 -13 -5 -11 -11 12 -29 25 -20
28 -28 25 -71 l-3 -49 -73 -2 c-40 -1 -74 2 -77 6 -10 16 8 110 21 110 15 0
29 19 20 27 -12 12 -155 13 -162 1z"/>
<path d="M724 361 c-9 -9 -3 -21 10 -21 8 0 16 -6 19 -12 5 -16 -44 -108 -58
-108 -8 0 -57 68 -73 101 -1 4 7 9 19 12 46 12 5 27 -77 27 -86 0 -103 -8 -60
-28 44 -20 127 -156 121 -199 -2 -15 -4 -40 -4 -55 -1 -21 -7 -29 -26 -34 -52
-13 -17 -26 70 -27 92 -1 121 12 68 31 -27 9 -28 13 -27 65 1 48 7 65 48 127
26 40 61 79 77 88 16 10 27 22 26 27 -4 9 -124 15 -133 6z"/>
<path d="M967 361 c-62 -6 -72 -17 -35 -35 21 -11 23 -18 25 -111 3 -143 -1
-164 -38 -172 -34 -6 -34 -28 -1 -27 12 0 56 1 97 2 71 2 98 14 55 25 -30 8
-40 48 -40 155 0 116 6 142 31 142 32 0 59 -36 59 -79 0 -53 -8 -71 -36 -82
-31 -11 -31 -27 0 -35 47 -11 106 36 121 98 8 31 -20 84 -54 105 -26 16 -110
23 -184 14z"/>
<path d="M1263 357 c-3 -6 0 -13 7 -15 8 -3 25 -16 38 -29 22 -22 23 -28 19
-136 l-3 -112 -32 -15 c-17 -8 -30 -19 -28 -25 4 -14 148 -13 153 1 2 6 -5 14
-16 17 -29 7 -39 41 -39 137 l0 85 45 -50 c25 -27 74 -85 110 -127 48 -58 71
-78 89 -78 l24 0 0 156 0 156 30 11 c31 12 36 33 7 31 -9 0 -44 -1 -77 -2 -65
-2 -78 -17 -30 -33 l30 -11 0 -89 c0 -49 -4 -89 -8 -89 -5 0 -33 28 -63 62
-30 34 -67 75 -84 93 -16 17 -34 38 -40 47 -12 20 -121 32 -132 15z"/>
<path d="M1860 355 c-49 -22 -70 -44 -92 -94 -37 -86 -18 -157 58 -215 43 -33
52 -36 113 -36 86 1 136 28 170 93 43 85 25 179 -46 233 -31 24 -49 29 -103
31 -43 2 -77 -2 -100 -12z m115 -29 c76 -32 100 -198 37 -261 -23 -24 -33 -26
-72 -22 -78 9 -116 80 -101 191 6 46 14 65 35 83 31 27 53 29 101 9z"/>
</g>
</svg>
