<?xml version="1.0" standalone="no"?>
<!DOCTYPE svg PUBLIC "-//W3C//DTD SVG 20010904//EN"
 "http://www.w3.org/TR/2001/REC-SVG-20010904/DTD/svg10.dtd">
<svg version="1.0" xmlns="http://www.w3.org/2000/svg"
 width="300.000000pt" height="300.000000pt" viewBox="0 0 300.000000 300.000000"
 preserveAspectRatio="xMidYMid meet">
<metadata>
Created by potrace 1.10, written by Peter Selinger 2001-2011
</metadata>
<g transform="translate(0.000000,300.000000) scale(0.100000,-0.100000)"
fill="currentColor" stroke="none">
<path d="M1370 2989 c-337 -20 -676 -178 -930 -433 -215 -216 -364 -503 -414
-795 -21 -127 -21 -395 0 -522 51 -300 193 -569 418 -795 226 -225 495 -367
795 -418 123 -21 405 -22 519 -1 672 118 1184 678 1231 1347 11 144 0 333 -24
447 -55 264 -203 536 -395 731 -248 251 -602 420 -915 436 -55 2 -113 6 -130
7 -16 2 -86 0 -155 -4z m406 -47 c294 -59 548 -194 759 -406 285 -286 430
-635 430 -1036 0 -400 -146 -752 -430 -1035 -290 -291 -674 -444 -1075 -431
-159 6 -274 27 -425 77 -510 170 -879 599 -981 1139 -23 127 -24 369 0 500
115 638 628 1126 1271 1209 111 14 336 5 451 -17z"/>
<path d="M1132 2012 c-34 -32 -47 -69 -38 -107 8 -30 10 -30 -39 -5 -49 25
-98 25 -152 1 -63 -29 -94 -83 -106 -187 -11 -82 -12 -86 -39 -91 -19 -4 -28
-12 -28 -24 0 -16 4 -17 26 -9 14 6 27 10 30 10 2 0 4 -101 4 -224 l0 -224 25
-4 c17 -4 29 0 35 11 9 14 12 14 27 -5 24 -29 49 -36 64 -18 10 12 15 10 35
-11 13 -14 28 -25 34 -25 7 0 10 91 10 279 0 279 0 280 22 283 12 2 23 9 26
17 3 10 -2 13 -22 9 -25 -5 -26 -4 -26 46 0 56 15 122 30 131 6 4 36 -10 68
-29 63 -39 105 -45 152 -21 43 22 60 53 60 108 0 42 -5 54 -34 83 -30 30 -40
34 -84 34 -41 0 -55 -5 -80 -28z m133 -37 c16 -15 25 -36 25 -55 0 -36 -38
-80 -69 -80 -11 0 -37 8 -57 17 -35 17 -36 19 -31 62 9 78 81 108 132 56z
m-274 -121 c-5 -29 -9 -173 -10 -436 l-1 -238 -32 0 c-31 0 -101 20 -113 31
-10 11 -6 485 5 535 14 64 54 113 100 124 45 10 56 7 51 -16z"/>
<path d="M1744 1870 c-23 -3 -53 -14 -67 -23 -31 -20 -37 -21 -37 -4 0 10 -24
7 -102 -11 -57 -13 -109 -26 -115 -28 -10 -3 -13 -91 -13 -398 l0 -396 27 -6
c17 -5 28 -3 31 4 6 18 26 14 40 -8 12 -20 52 -28 52 -10 0 18 29 10 35 -10 4
-12 15 -20 28 -20 l22 0 -3 420 -3 419 31 16 31 16 14 -35 c12 -29 15 -106 15
-430 0 -372 1 -395 18 -389 9 3 25 15 35 27 13 15 20 17 24 9 8 -21 49 -15 65
9 13 19 18 21 31 10 9 -8 23 -12 33 -10 15 3 16 35 15 351 -1 286 -4 353 -16
377 -15 28 -14 29 30 53 39 22 45 23 57 10 10 -12 14 -102 16 -390 3 -400 4
-403 51 -351 17 17 23 19 35 9 18 -15 52 -6 60 14 6 18 33 20 38 4 2 -7 13 -9
26 -5 l22 7 0 297 c-1 316 -4 337 -51 407 -53 77 -153 89 -252 30 -59 -35 -60
-35 -74 -15 -27 39 -87 59 -149 50z m113 -72 c51 -46 53 -64 53 -403 l0 -315
-36 -15 c-20 -8 -51 -15 -70 -15 l-33 0 -4 368 c-2 202 -7 378 -12 391 -8 23
-7 24 34 18 25 -3 54 -15 68 -29z m293 15 c15 -9 39 -35 52 -57 22 -40 23 -48
26 -321 l3 -280 -38 -13 c-62 -22 -102 -26 -108 -11 -2 8 -6 168 -7 357 l-3
342 23 0 c13 0 37 -7 52 -17z m-555 -398 l0 -380 -34 -3 c-18 -2 -38 1 -44 7
-6 6 -21 11 -34 11 l-23 0 0 359 0 358 53 15 c90 27 82 61 82 -367z"/>
<path d="M1225 1759 c-44 -10 -89 -21 -100 -24 -20 -4 -20 -11 -18 -326 2
-276 4 -324 17 -331 9 -5 23 -4 34 3 16 10 23 8 41 -10 23 -23 37 -26 46 -11
9 15 35 12 35 -4 0 -14 21 -26 43 -26 9 0 12 96 12 375 0 327 -2 375 -15 374
-8 -1 -51 -10 -95 -20z m63 -346 l-3 -308 -23 -3 c-13 -2 -43 5 -68 15 l-44
18 2 280 3 279 40 12 c22 7 52 13 68 13 l27 1 -2 -307z"/>
</g>
</svg>
